<svg id="logo-whatsapp" xmlns="http://www.w3.org/2000/svg" xmlns:xlink="http://www.w3.org/1999/xlink" width="133.871" height="134.649" viewBox="0 0 133.871 134.649">
  <defs>
    <linearGradient id="linear-gradient" x1="0.5" x2="0.5" y2="1" gradientUnits="objectBoundingBox">
      <stop offset="0" stop-color="#fff"/>
      <stop offset="1" stop-color="#fff" stop-opacity="0"/>
    </linearGradient>
  </defs>
  <path id="Path_956" data-name="Path 956" d="M114.451,19.356C101.828,6.732,85.839,0,67.324,0,31.138,0,.842,30.3.842,66.483A67.466,67.466,0,0,0,10.1,100.145L0,134.649l35.345-9.257c10.1,5.049,21.039,8.416,31.979,8.416h0a66.623,66.623,0,0,0,66.483-66.483C134.649,48.81,127.075,31.979,114.451,19.356ZM100.145,90.888c-1.683,4.208-8.416,7.574-10.94,7.574-2.525.842-10.94,0-20.2-4.208C52.176,86.68,41.236,69.849,40.395,69.007s-6.732-9.257-6.732-16.831A20.653,20.653,0,0,1,39.553,37.87c3.366-3.366,10.1-2.525,11.782.842.842,3.366,4.208,11.782,5.049,12.623s.842,4.208-1.683,5.891c-.842,0-5.049,3.366-3.366,5.891A56.959,56.959,0,0,0,60.592,74.9a47.06,47.06,0,0,0,13.465,8.416c1.683.842,2.525.842,3.366-.842a46.68,46.68,0,0,0,5.049-6.732,2.082,2.082,0,0,1,3.366-.842c.842.842,10.1,4.208,11.782,5.049,1.683,1.683,3.366,1.683,3.366,2.525C101.828,83.314,101.828,86.68,100.145,90.888Z" fill="url(#linear-gradient)"/>
</svg>
